<mxfile host="app.diagrams.net" modified="2024-07-20T09:30:33.865Z" agent="Mozilla/5.0 (Windows NT 10.0; Win64; x64) AppleWebKit/537.36 (KHTML, like Gecko) Chrome/126.0.0.0 Safari/537.36" etag="fOS2rE0sxqvE2mH-3awx" version="24.7.2" type="github">
  <diagram name="Page-1" id="Ieb54_Twe-6e-NPpWLch">
    <mxGraphModel dx="2074" dy="1098" grid="1" gridSize="10" guides="1" tooltips="1" connect="1" arrows="1" fold="1" page="1" pageScale="1" pageWidth="1200" pageHeight="1600" math="0" shadow="0">
      <root>
        <mxCell id="0" />
        <mxCell id="1" parent="0" />
        <mxCell id="6YeWHf5Q00qyi827OYz0-40" value="&lt;b style=&quot;font-size: 13px;&quot;&gt;&lt;u&gt;Enterprise Workforce Management&lt;/u&gt;&lt;/b&gt;" style="shape=ext;double=1;rounded=0;whiteSpace=wrap;html=1;verticalAlign=bottom;strokeWidth=1;" parent="1" vertex="1">
          <mxGeometry x="103.11999999999999" y="680" width="1023.75" height="210" as="geometry" />
        </mxCell>
        <mxCell id="6YeWHf5Q00qyi827OYz0-21" value="&lt;b style=&quot;font-size: 13px;&quot;&gt;&lt;u&gt;Fullfilment &amp;amp; Service Inventory&lt;/u&gt;&lt;/b&gt;&lt;div style=&quot;font-size: 13px;&quot;&gt;&lt;b&gt;&lt;u&gt;&lt;br&gt;&lt;/u&gt;&lt;/b&gt;&lt;/div&gt;&lt;div style=&quot;font-size: 13px;&quot;&gt;&lt;b&gt;&lt;u&gt;&lt;br&gt;&lt;/u&gt;&lt;/b&gt;&lt;/div&gt;&lt;div style=&quot;font-size: 13px;&quot;&gt;&lt;br&gt;&lt;/div&gt;" style="shape=ext;double=1;rounded=0;whiteSpace=wrap;html=1;strokeWidth=1;" parent="1" vertex="1">
          <mxGeometry x="237" y="180" width="200" height="80" as="geometry" />
        </mxCell>
        <mxCell id="6YeWHf5Q00qyi827OYz0-47" style="edgeStyle=orthogonalEdgeStyle;rounded=0;orthogonalLoop=1;jettySize=auto;html=1;exitX=0.5;exitY=1;exitDx=0;exitDy=0;entryX=0.5;entryY=0;entryDx=0;entryDy=0;" parent="1" source="6YeWHf5Q00qyi827OYz0-3" target="6YeWHf5Q00qyi827OYz0-41" edge="1">
          <mxGeometry relative="1" as="geometry" />
        </mxCell>
        <mxCell id="6YeWHf5Q00qyi827OYz0-49" style="edgeStyle=orthogonalEdgeStyle;rounded=0;orthogonalLoop=1;jettySize=auto;html=1;exitX=0.5;exitY=1;exitDx=0;exitDy=0;entryX=0.5;entryY=0;entryDx=0;entryDy=0;startArrow=classic;startFill=1;strokeWidth=2;strokeColor=#009900;" parent="1" source="6YeWHf5Q00qyi827OYz0-3" target="6YeWHf5Q00qyi827OYz0-46" edge="1">
          <mxGeometry relative="1" as="geometry" />
        </mxCell>
        <mxCell id="6YeWHf5Q00qyi827OYz0-52" style="edgeStyle=orthogonalEdgeStyle;rounded=0;orthogonalLoop=1;jettySize=auto;html=1;exitX=0.5;exitY=1;exitDx=0;exitDy=0;strokeColor=#0000CC;startArrow=classic;startFill=1;strokeWidth=2;" parent="1" source="6YeWHf5Q00qyi827OYz0-3" target="6YeWHf5Q00qyi827OYz0-51" edge="1">
          <mxGeometry relative="1" as="geometry" />
        </mxCell>
        <mxCell id="6YeWHf5Q00qyi827OYz0-3" value="" style="rounded=1;whiteSpace=wrap;html=1;strokeWidth=2;fillWeight=0;hachureGap=8;hachureAngle=45;fillColor=#A9C4EB;glass=0;shadow=1;strokeColor=default;fillStyle=dashed;" parent="1" vertex="1">
          <mxGeometry x="300" y="450" width="630" height="200" as="geometry" />
        </mxCell>
        <mxCell id="6YeWHf5Q00qyi827OYz0-2" value="&lt;font style=&quot;font-size: 26px;&quot;&gt;&lt;b&gt;Field Engineering Gateway&lt;/b&gt;&lt;/font&gt;" style="sketch=0;outlineConnect=0;fontColor=#232F3E;gradientColor=none;fillColor=#0F2834;strokeColor=none;dashed=0;verticalLabelPosition=bottom;verticalAlign=top;align=center;html=1;fontSize=12;fontStyle=0;aspect=fixed;pointerEvents=1;shape=mxgraph.aws4.virtual_gateway;strokeWidth=2;" parent="1" vertex="1">
          <mxGeometry x="570" y="490" width="90" height="90" as="geometry" />
        </mxCell>
        <mxCell id="6YeWHf5Q00qyi827OYz0-4" value="FEG PostGres DB" style="image;aspect=fixed;html=1;points=[];align=center;fontSize=14;image=img/lib/azure2/databases/Azure_Database_PostgreSQL_Server.svg;fontStyle=1;strokeWidth=2;" parent="1" vertex="1">
          <mxGeometry x="824" y="390" width="85" height="113.33" as="geometry" />
        </mxCell>
        <mxCell id="6YeWHf5Q00qyi827OYz0-7" value="" style="outlineConnect=0;dashed=0;verticalLabelPosition=bottom;verticalAlign=top;align=center;html=1;shape=mxgraph.aws3.volume;fillColor=#656C75;strokeColor=#6c8ebf;strokeWidth=2;fillStyle=hatch;shadow=1;perimeterSpacing=1;" parent="1" vertex="1">
          <mxGeometry x="175" y="315" width="122.5" height="75" as="geometry" />
        </mxCell>
        <mxCell id="6YeWHf5Q00qyi827OYz0-23" value="" style="edgeStyle=orthogonalEdgeStyle;rounded=0;orthogonalLoop=1;jettySize=auto;html=1;exitX=0.5;exitY=1;exitDx=0;exitDy=0;exitPerimeter=0;startArrow=classic;startFill=1;strokeWidth=2;" parent="1" source="6YeWHf5Q00qyi827OYz0-7" target="6YeWHf5Q00qyi827OYz0-3" edge="1">
          <mxGeometry relative="1" as="geometry" />
        </mxCell>
        <mxCell id="6YeWHf5Q00qyi827OYz0-8" value="&lt;font style=&quot;font-size: 14px;&quot;&gt;&lt;b&gt;ESB&lt;/b&gt;&lt;/font&gt;" style="text;html=1;align=center;verticalAlign=middle;whiteSpace=wrap;rounded=0;glass=0;fillColor=#f5f5f5;fontColor=#333333;strokeColor=#666666;strokeWidth=2;" parent="1" vertex="1">
          <mxGeometry x="186.25" y="335" width="100" height="35" as="geometry" />
        </mxCell>
        <mxCell id="6YeWHf5Q00qyi827OYz0-14" value="" style="edgeStyle=orthogonalEdgeStyle;rounded=0;orthogonalLoop=1;jettySize=auto;html=1;startArrow=classic;startFill=1;strokeWidth=2;strokeColor=#FF0000;" parent="1" source="6YeWHf5Q00qyi827OYz0-11" target="6YeWHf5Q00qyi827OYz0-7" edge="1">
          <mxGeometry relative="1" as="geometry" />
        </mxCell>
        <mxCell id="6YeWHf5Q00qyi827OYz0-11" value="&lt;b style=&quot;font-size: 13px;&quot;&gt;&lt;font style=&quot;font-size: 13px;&quot;&gt;&lt;u&gt;Fullfilment &amp;amp; Service Inventory&lt;/u&gt;&lt;/font&gt;&lt;/b&gt;&lt;div style=&quot;font-size: 13px;&quot;&gt;&lt;b&gt;&lt;font style=&quot;font-size: 13px;&quot;&gt;&lt;u&gt;&lt;br&gt;&lt;/u&gt;&lt;/font&gt;&lt;/b&gt;&lt;/div&gt;&lt;div style=&quot;font-size: 13px;&quot;&gt;&lt;b&gt;&lt;font style=&quot;font-size: 13px;&quot;&gt;&lt;u&gt;&lt;br&gt;&lt;/u&gt;&lt;/font&gt;&lt;/b&gt;&lt;/div&gt;&lt;div style=&quot;font-size: 13px;&quot;&gt;&lt;br&gt;&lt;/div&gt;" style="shape=ext;double=1;rounded=0;whiteSpace=wrap;html=1;align=center;strokeWidth=1;" parent="1" vertex="1">
          <mxGeometry x="37" y="180" width="200" height="80" as="geometry" />
        </mxCell>
        <mxCell id="6YeWHf5Q00qyi827OYz0-16" value="AUTOFIX" style="shape=ext;double=1;rounded=1;whiteSpace=wrap;html=1;strokeWidth=1;" parent="1" vertex="1">
          <mxGeometry x="77" y="210" width="120" height="40" as="geometry" />
        </mxCell>
        <mxCell id="6YeWHf5Q00qyi827OYz0-18" value="AIB" style="shape=ext;double=1;rounded=1;whiteSpace=wrap;html=1;strokeWidth=1;" parent="1" vertex="1">
          <mxGeometry x="272" y="210" width="120" height="40" as="geometry" />
        </mxCell>
        <mxCell id="6YeWHf5Q00qyi827OYz0-22" value="" style="edgeStyle=orthogonalEdgeStyle;rounded=0;orthogonalLoop=1;jettySize=auto;html=1;strokeWidth=2;startArrow=classic;startFill=1;strokeColor=#0000FF;" parent="1" source="6YeWHf5Q00qyi827OYz0-21" target="6YeWHf5Q00qyi827OYz0-7" edge="1">
          <mxGeometry relative="1" as="geometry" />
        </mxCell>
        <mxCell id="6YeWHf5Q00qyi827OYz0-29" style="edgeStyle=orthogonalEdgeStyle;rounded=0;orthogonalLoop=1;jettySize=auto;html=1;exitX=0.5;exitY=1;exitDx=0;exitDy=0;entryX=0.5;entryY=0;entryDx=0;entryDy=0;strokeWidth=2;" parent="1" source="6YeWHf5Q00qyi827OYz0-34" target="6YeWHf5Q00qyi827OYz0-3" edge="1">
          <mxGeometry relative="1" as="geometry">
            <mxPoint x="645" y="450" as="targetPoint" />
          </mxGeometry>
        </mxCell>
        <mxCell id="6YeWHf5Q00qyi827OYz0-25" value="&lt;b style=&quot;font-size: 13px;&quot;&gt;&lt;u&gt;Enterprise Workforce Management&lt;/u&gt;&lt;/b&gt;&lt;div style=&quot;font-size: 13px;&quot;&gt;&lt;b&gt;&lt;u&gt;&lt;br&gt;&lt;/u&gt;&lt;/b&gt;&lt;/div&gt;&lt;div style=&quot;font-size: 13px;&quot;&gt;&lt;b&gt;&lt;u&gt;&lt;br&gt;&lt;/u&gt;&lt;/b&gt;&lt;/div&gt;&lt;div style=&quot;font-size: 13px;&quot;&gt;&lt;br&gt;&lt;/div&gt;" style="shape=ext;double=1;rounded=0;whiteSpace=wrap;html=1;strokeWidth=1;" parent="1" vertex="1">
          <mxGeometry x="515" y="180" width="200" height="90" as="geometry" />
        </mxCell>
        <mxCell id="6YeWHf5Q00qyi827OYz0-26" value="PEACE01 (NAT POWER CONTROL)" style="shape=ext;double=1;rounded=1;whiteSpace=wrap;html=1;strokeWidth=1;" parent="1" vertex="1">
          <mxGeometry x="505" y="220" width="220" height="40" as="geometry" />
        </mxCell>
        <mxCell id="6YeWHf5Q00qyi827OYz0-38" style="edgeStyle=orthogonalEdgeStyle;rounded=0;orthogonalLoop=1;jettySize=auto;html=1;exitX=0.5;exitY=1;exitDx=0;exitDy=0;startArrow=classic;startFill=1;strokeWidth=2;strokeColor=#FF0000;" parent="1" source="6YeWHf5Q00qyi827OYz0-30" target="6YeWHf5Q00qyi827OYz0-4" edge="1">
          <mxGeometry relative="1" as="geometry" />
        </mxCell>
        <mxCell id="6YeWHf5Q00qyi827OYz0-30" value="&lt;div style=&quot;font-size: 13px;&quot;&gt;&lt;b&gt;&lt;u&gt;CUSTOMER AND PRODUCT&lt;/u&gt;&lt;/b&gt;&lt;/div&gt;&lt;div style=&quot;font-size: 13px;&quot;&gt;&lt;b&gt;&lt;u&gt;&lt;br&gt;&lt;/u&gt;&lt;/b&gt;&lt;/div&gt;&lt;div style=&quot;font-size: 13px;&quot;&gt;&lt;b&gt;&lt;u&gt;&lt;br&gt;&lt;/u&gt;&lt;/b&gt;&lt;/div&gt;&lt;div style=&quot;font-size: 13px;&quot;&gt;&lt;b&gt;&lt;u&gt;&lt;br&gt;&lt;/u&gt;&lt;/b&gt;&lt;/div&gt;" style="shape=ext;double=1;rounded=0;whiteSpace=wrap;html=1;strokeWidth=1;" parent="1" vertex="1">
          <mxGeometry x="767" y="180" width="200" height="90" as="geometry" />
        </mxCell>
        <mxCell id="6YeWHf5Q00qyi827OYz0-31" value="FAST REPAIR (ORACLE 11g)" style="shape=ext;double=1;rounded=1;whiteSpace=wrap;html=1;strokeWidth=1;" parent="1" vertex="1">
          <mxGeometry x="777" y="220" width="180" height="40" as="geometry" />
        </mxCell>
        <mxCell id="6YeWHf5Q00qyi827OYz0-35" value="" style="edgeStyle=orthogonalEdgeStyle;rounded=0;orthogonalLoop=1;jettySize=auto;html=1;exitX=0.5;exitY=1;exitDx=0;exitDy=0;entryX=0.5;entryY=0;entryDx=0;entryDy=0;strokeWidth=2;strokeColor=#9933FF;" parent="1" source="6YeWHf5Q00qyi827OYz0-25" target="6YeWHf5Q00qyi827OYz0-34" edge="1">
          <mxGeometry relative="1" as="geometry">
            <mxPoint x="590" y="270" as="sourcePoint" />
            <mxPoint x="645" y="450" as="targetPoint" />
          </mxGeometry>
        </mxCell>
        <mxCell id="6YeWHf5Q00qyi827OYz0-34" value="&lt;div&gt;&lt;span style=&quot;background-color: initial;&quot;&gt;SOAP Based Web Service - SVC11691&lt;/span&gt;&lt;br&gt;&lt;/div&gt;" style="rounded=1;arcSize=9;fillColor=#F7F8F9;align=left;spacingLeft=5;strokeColor=#DEE1E6;html=1;strokeWidth=2;fontColor=#596780;fontSize=12" parent="1" vertex="1">
          <mxGeometry x="500" y="325" width="230" height="40" as="geometry" />
        </mxCell>
        <mxCell id="6YeWHf5Q00qyi827OYz0-36" value="&lt;div&gt;&lt;span style=&quot;background-color: initial;&quot;&gt;&amp;nbsp; Weblogic JMS&lt;/span&gt;&lt;br&gt;&lt;/div&gt;" style="rounded=1;arcSize=9;fillColor=#F7F8F9;align=left;spacingLeft=5;strokeColor=#DEE1E6;html=1;strokeWidth=2;fontColor=#596780;fontSize=12;fillStyle=solid;" parent="1" vertex="1">
          <mxGeometry x="330" y="400" width="100" height="40" as="geometry" />
        </mxCell>
        <mxCell id="6YeWHf5Q00qyi827OYz0-39" value="&lt;div&gt;&lt;span style=&quot;background-color: initial;&quot;&gt;Oracle Data Transfer - SVC2143&lt;/span&gt;&lt;/div&gt;&lt;div&gt;&lt;span style=&quot;background-color: initial;&quot;&gt;Request and Response Polling&lt;/span&gt;&lt;/div&gt;" style="rounded=1;arcSize=9;fillColor=#F7F8F9;align=left;spacingLeft=5;strokeColor=#DEE1E6;html=1;strokeWidth=2;fontColor=#596780;fontSize=12" parent="1" vertex="1">
          <mxGeometry x="760" y="325" width="230" height="40" as="geometry" />
        </mxCell>
        <mxCell id="6YeWHf5Q00qyi827OYz0-41" value="Salesforce Service Gateway SSG (4.X)" style="shape=ext;double=1;rounded=1;whiteSpace=wrap;html=1;strokeWidth=1;" parent="1" vertex="1">
          <mxGeometry x="505" y="800" width="220" height="40" as="geometry" />
        </mxCell>
        <mxCell id="6YeWHf5Q00qyi827OYz0-46" value="OR METB (3.X)" style="shape=ext;double=1;rounded=1;whiteSpace=wrap;html=1;strokeWidth=1;" parent="1" vertex="1">
          <mxGeometry x="236.99" y="800" width="220" height="40" as="geometry" />
        </mxCell>
        <mxCell id="6YeWHf5Q00qyi827OYz0-48" style="edgeStyle=orthogonalEdgeStyle;rounded=0;orthogonalLoop=1;jettySize=auto;html=1;exitX=0.5;exitY=1;exitDx=0;exitDy=0;startArrow=classic;startFill=1;strokeWidth=2;strokeColor=#FF0000;" parent="1" source="6YeWHf5Q00qyi827OYz0-3" target="6YeWHf5Q00qyi827OYz0-41" edge="1">
          <mxGeometry relative="1" as="geometry" />
        </mxCell>
        <mxCell id="6YeWHf5Q00qyi827OYz0-43" value="&lt;div style=&quot;&quot;&gt;&lt;span style=&quot;background-color: initial;&quot;&gt;Apache Artemis&lt;/span&gt;&lt;br&gt;&lt;/div&gt;" style="rounded=1;arcSize=9;fillColor=#F7F8F9;align=center;spacingLeft=5;strokeColor=#DEE1E6;html=1;strokeWidth=2;fontColor=#596780;fontSize=12" parent="1" vertex="1">
          <mxGeometry x="564.99" y="740" width="100" height="40" as="geometry" />
        </mxCell>
        <mxCell id="6YeWHf5Q00qyi827OYz0-50" value="&lt;div style=&quot;&quot;&gt;&lt;span style=&quot;background-color: initial;&quot;&gt;Weblogic JMS&lt;/span&gt;&lt;br&gt;&lt;/div&gt;" style="rounded=1;arcSize=9;fillColor=#F7F8F9;align=center;spacingLeft=5;strokeColor=#DEE1E6;html=1;strokeWidth=2;fontColor=#596780;fontSize=12" parent="1" vertex="1">
          <mxGeometry x="400" y="710" width="100" height="40" as="geometry" />
        </mxCell>
        <mxCell id="6YeWHf5Q00qyi827OYz0-51" value="GFS" style="shape=ext;double=1;rounded=1;whiteSpace=wrap;html=1;strokeWidth=1;" parent="1" vertex="1">
          <mxGeometry x="769.99" y="800" width="220" height="40" as="geometry" />
        </mxCell>
        <mxCell id="6YeWHf5Q00qyi827OYz0-53" value="&lt;div style=&quot;&quot;&gt;&lt;span style=&quot;background-color: initial;&quot;&gt;WebService&lt;/span&gt;&lt;br&gt;&lt;/div&gt;" style="rounded=1;arcSize=9;fillColor=#F7F8F9;align=center;spacingLeft=5;strokeColor=#DEE1E6;html=1;strokeWidth=2;fontColor=#596780;fontSize=12" parent="1" vertex="1">
          <mxGeometry x="725" y="710" width="100" height="40" as="geometry" />
        </mxCell>
      </root>
    </mxGraphModel>
  </diagram>
</mxfile>
